# xmcd
#
# Track frame offsets: 
#        150
#        17320
#        37775
#        49780
#        77705
#        93707
#        118175
#        132207
#        150030
#        178790
#        194040
#        209325
#        231857
#        249830
#        268017
#        285345
#        303912
#
# Disc length: 4256 seconds
#
# Revision: 3
# Processed by: cddbd v1.5.2PL0 Copyright (c) Steve Scherf et al.
# Submitted via: ExactAudioCopy v0.95b2
#
DISCID=d8109e11
DTITLE=Tracy Nelson - The Best of Tracy Nelson: Mother Earth
DYEAR=1996
DGENRE=
TTITLE0=Down So Low
TTITLE1=Cry On
TTITLE2=Goodnight Nelda Grebe, the Telephone Company Has Cut Us Off
TTITLE3=Mother Earth
TTITLE4=Won't Be Long
TTITLE5=Need Your Love So Bad
TTITLE6=The Soul of a Man
TTITLE7=Satisfied
TTITLE8=Ruler of My Heart
TTITLE9=Temptation Took Control of Me and I Fell
TTITLE10=Soul of Sadness
TTITLE11=Tonight, The Sky's About To Cry
TTITLE12=I'll Be Long Gone
TTITLE13=Seven Bridges Road
TTITLE14=Tennessee Blues
TTITLE15=Thinking of You
TTITLE16=I Don't Do That Kind of Thing Anymore
EXTD=
EXTT0=
EXTT1=
EXTT2=
EXTT3=
EXTT4=
EXTT5=
EXTT6=
EXTT7=
EXTT8=
EXTT9=
EXTT10=
EXTT11=
EXTT12=
EXTT13=
EXTT14=
EXTT15=
EXTT16=
PLAYORDER=
